<svg width="117" height="18" viewBox="0 0 117 18" fill="none" xmlns="http://www.w3.org/2000/svg">
<path d="M3.6 2.6V7.28H7.224V9.68H3.6V14.6H8.16V17H0.96V0.199999H8.16V2.6H3.6ZM16.1559 0.199999H18.6039L15.8439 8.36L18.7959 17H16.0119L13.8519 10.352L11.6679 17H9.19594L12.1479 8.36L9.38794 0.199999H12.1239L14.1159 6.392L16.1559 0.199999ZM24.9169 10.736H27.4129V12.968C27.4129 14.328 27.0769 15.376 26.4049 16.112C25.7329 16.832 24.7569 17.192 23.4769 17.192C22.1969 17.192 21.2209 16.832 20.5489 16.112C19.8769 15.376 19.5409 14.328 19.5409 12.968V4.232C19.5409 2.872 19.8769 1.832 20.5489 1.112C21.2209 0.375999 22.1969 0.0079999 23.4769 0.0079999C24.7569 0.0079999 25.7329 0.375999 26.4049 1.112C27.0769 1.832 27.4129 2.872 27.4129 4.232V5.864H24.9169V4.064C24.9169 2.96 24.4609 2.408 23.5489 2.408C22.6369 2.408 22.1809 2.96 22.1809 4.064V13.136C22.1809 14.224 22.6369 14.768 23.5489 14.768C24.4609 14.768 24.9169 14.224 24.9169 13.136V10.736ZM31.6547 9.8V17H29.0147V0.199999H31.6547V7.4H34.6547V0.199999H37.3427V17H34.6547V9.8H31.6547ZM45.1129 0.199999L47.8009 17H45.1369L44.6809 13.952H41.4409L40.9849 17H38.5609L41.2489 0.199999H45.1129ZM43.0489 3.176L41.7769 11.672H44.3209L43.0489 3.176ZM54.6703 17L51.3823 4.832V17H49.0063V0.199999H52.3183L55.0303 10.256V0.199999H57.3823V17H54.6703ZM63.2325 10.04V7.64H66.9285V12.968C66.9285 14.328 66.5925 15.376 65.9205 16.112C65.2485 16.832 64.2725 17.192 62.9925 17.192C61.7125 17.192 60.7365 16.832 60.0645 16.112C59.3925 15.376 59.0565 14.328 59.0565 12.968V4.232C59.0565 2.872 59.3925 1.832 60.0645 1.112C60.7365 0.375999 61.7125 0.0079999 62.9925 0.0079999C64.2725 0.0079999 65.2485 0.375999 65.9205 1.112C66.5925 1.832 66.9285 2.872 66.9285 4.232V5.864H64.4325V4.064C64.4325 2.96 63.9765 2.408 63.0645 2.408C62.1525 2.408 61.6965 2.96 61.6965 4.064V13.136C61.6965 14.224 62.1525 14.768 63.0645 14.768C63.9765 14.768 64.4325 14.224 64.4325 13.136V10.04H63.2325ZM71.2641 2.6V7.28H74.8881V9.68H71.2641V14.6H75.8241V17H68.6241V0.199999H75.8241V2.6H71.2641ZM77.124 4.232C77.124 2.872 77.452 1.832 78.108 1.112C78.764 0.375999 79.732 0.0079999 81.012 0.0079999C82.292 0.0079999 83.26 0.375999 83.916 1.112C84.572 1.832 84.9 2.872 84.9 4.232V4.76H82.404V4.064C82.404 2.96 81.964 2.408 81.084 2.408C80.204 2.408 79.764 2.96 79.764 4.064C79.764 4.688 79.94 5.28 80.292 5.84C80.644 6.384 81.068 6.88 81.564 7.328C82.076 7.776 82.588 8.248 83.1 8.744C83.612 9.224 84.044 9.832 84.396 10.568C84.748 11.288 84.924 12.088 84.924 12.968C84.924 14.328 84.588 15.376 83.916 16.112C83.244 16.832 82.268 17.192 80.988 17.192C79.708 17.192 78.732 16.832 78.06 16.112C77.388 15.376 77.052 14.328 77.052 12.968V11.936H79.548V13.136C79.548 14.224 80.004 14.768 80.916 14.768C81.828 14.768 82.284 14.224 82.284 13.136C82.284 12.512 82.108 11.928 81.756 11.384C81.404 10.824 80.972 10.32 80.46 9.872C79.964 9.424 79.46 8.96 78.948 8.48C78.436 7.984 78.004 7.376 77.652 6.656C77.3 5.92 77.124 5.112 77.124 4.232ZM86.3166 0.199999H88.9566V13.16C88.9566 14.248 89.4126 14.792 90.3246 14.792C91.2366 14.792 91.6926 14.248 91.6926 13.16V0.199999H94.1886V12.992C94.1886 14.352 93.8526 15.4 93.1806 16.136C92.5086 16.856 91.5326 17.216 90.2526 17.216C88.9726 17.216 87.9966 16.856 87.3246 16.136C86.6526 15.4 86.3166 14.352 86.3166 12.992V0.199999ZM99.6471 0.199999L101.591 12.128L103.391 0.199999H107.063V17H104.567V4.952L102.743 17H100.247L98.2791 5.12V17H95.9751V0.199999H99.6471ZM111.407 4.064V13.136C111.407 14.24 111.863 14.792 112.775 14.792C113.687 14.792 114.143 14.24 114.143 13.136V4.064C114.143 2.96 113.687 2.408 112.775 2.408C111.863 2.408 111.407 2.96 111.407 4.064ZM108.767 12.968V4.232C108.767 2.888 109.111 1.848 109.799 1.112C110.487 0.375999 111.479 0.0079999 112.775 0.0079999C114.071 0.0079999 115.063 0.375999 115.751 1.112C116.439 1.848 116.783 2.888 116.783 4.232V12.968C116.783 14.312 116.439 15.352 115.751 16.088C115.063 16.824 114.071 17.192 112.775 17.192C111.479 17.192 110.487 16.824 109.799 16.088C109.111 15.352 108.767 14.312 108.767 12.968Z" fill="#878787"/>
</svg>
