<svg width="132" height="31" viewBox="0 0 132 31" fill="none" xmlns="http://www.w3.org/2000/svg">
<path d="M1.386 13V3.2H2.87L7.168 10.354H6.37L10.598 3.2H12.082L12.11 13H10.374L10.36 5.902H10.724L7.14 11.88H6.328L2.688 5.902H3.108V13H1.386ZM17.9885 13.098C17.2231 13.098 16.5418 12.9347 15.9445 12.608C15.3471 12.272 14.8758 11.8147 14.5305 11.236C14.1851 10.6573 14.0125 9.99933 14.0125 9.262C14.0125 8.51533 14.1851 7.85733 14.5305 7.288C14.8758 6.70933 15.3471 6.25667 15.9445 5.93C16.5418 5.60333 17.2231 5.44 17.9885 5.44C18.7631 5.44 19.4491 5.60333 20.0465 5.93C20.6531 6.25667 21.1245 6.70467 21.4605 7.274C21.8058 7.84333 21.9785 8.506 21.9785 9.262C21.9785 9.99933 21.8058 10.6573 21.4605 11.236C21.1245 11.8147 20.6531 12.272 20.0465 12.608C19.4491 12.9347 18.7631 13.098 17.9885 13.098ZM17.9885 11.6C18.4178 11.6 18.8005 11.5067 19.1365 11.32C19.4725 11.1333 19.7338 10.8627 19.9205 10.508C20.1165 10.1533 20.2145 9.738 20.2145 9.262C20.2145 8.77667 20.1165 8.36133 19.9205 8.016C19.7338 7.66133 19.4725 7.39067 19.1365 7.204C18.8005 7.01733 18.4225 6.924 18.0025 6.924C17.5731 6.924 17.1905 7.01733 16.8545 7.204C16.5278 7.39067 16.2665 7.66133 16.0705 8.016C15.8745 8.36133 15.7765 8.77667 15.7765 9.262C15.7765 9.738 15.8745 10.1533 16.0705 10.508C16.2665 10.8627 16.5278 11.1333 16.8545 11.32C17.1905 11.5067 17.5685 11.6 17.9885 11.6ZM23.7073 13V5.524H25.4573V8.562H29.2233V5.524H30.9733V13H29.2233V10.046H25.4573V13H23.7073ZM33.3186 13V5.524H35.0686V10.452L39.1986 5.524H40.7946V13H39.0446V8.072L34.9286 13H33.3186ZM44.7027 13V6.588L45.1087 7.008H42.0707V5.524H49.0707V7.008H46.0467L46.4527 6.588V13H44.7027ZM53.3439 13.098C52.5786 13.098 51.8973 12.9347 51.2999 12.608C50.7026 12.272 50.2313 11.8147 49.8859 11.236C49.5406 10.6573 49.3679 9.99933 49.3679 9.262C49.3679 8.51533 49.5406 7.85733 49.8859 7.288C50.2313 6.70933 50.7026 6.25667 51.2999 5.93C51.8973 5.60333 52.5786 5.44 53.3439 5.44C54.1186 5.44 54.8046 5.60333 55.4019 5.93C56.0086 6.25667 56.4799 6.70467 56.8159 7.274C57.1613 7.84333 57.3339 8.506 57.3339 9.262C57.3339 9.99933 57.1613 10.6573 56.8159 11.236C56.4799 11.8147 56.0086 12.272 55.4019 12.608C54.8046 12.9347 54.1186 13.098 53.3439 13.098ZM53.3439 11.6C53.7733 11.6 54.1559 11.5067 54.4919 11.32C54.8279 11.1333 55.0893 10.8627 55.2759 10.508C55.4719 10.1533 55.5699 9.738 55.5699 9.262C55.5699 8.77667 55.4719 8.36133 55.2759 8.016C55.0893 7.66133 54.8279 7.39067 54.4919 7.204C54.1559 7.01733 53.7779 6.924 53.3579 6.924C52.9286 6.924 52.5459 7.01733 52.2099 7.204C51.8833 7.39067 51.6219 7.66133 51.4259 8.016C51.2299 8.36133 51.1319 8.77667 51.1319 9.262C51.1319 9.738 51.2299 10.1533 51.4259 10.508C51.6219 10.8627 51.8833 11.1333 52.2099 11.32C52.5459 11.5067 52.9239 11.6 53.3439 11.6ZM63.2067 13.098C62.6001 13.098 62.0447 12.958 61.5407 12.678C61.0461 12.398 60.6494 11.978 60.3507 11.418C60.0614 10.8487 59.9167 10.13 59.9167 9.262C59.9167 8.38467 60.0567 7.666 60.3367 7.106C60.6261 6.546 61.0181 6.13067 61.5127 5.86C62.0074 5.58 62.5721 5.44 63.2067 5.44C63.9441 5.44 64.5927 5.59867 65.1527 5.916C65.7221 6.23333 66.1701 6.67667 66.4967 7.246C66.8327 7.81533 67.0007 8.48733 67.0007 9.262C67.0007 10.0367 66.8327 10.7133 66.4967 11.292C66.1701 11.8613 65.7221 12.3047 65.1527 12.622C64.5927 12.9393 63.9441 13.098 63.2067 13.098ZM59.0627 15.716V5.524H60.7287V7.288L60.6727 9.276L60.8127 11.264V15.716H59.0627ZM63.0107 11.6C63.4307 11.6 63.8041 11.5067 64.1307 11.32C64.4667 11.1333 64.7327 10.8627 64.9287 10.508C65.1247 10.1533 65.2227 9.738 65.2227 9.262C65.2227 8.77667 65.1247 8.36133 64.9287 8.016C64.7327 7.66133 64.4667 7.39067 64.1307 7.204C63.8041 7.01733 63.4307 6.924 63.0107 6.924C62.5907 6.924 62.2127 7.01733 61.8767 7.204C61.5407 7.39067 61.2747 7.66133 61.0787 8.016C60.8827 8.36133 60.7847 8.77667 60.7847 9.262C60.7847 9.738 60.8827 10.1533 61.0787 10.508C61.2747 10.8627 61.5407 11.1333 61.8767 11.32C62.2127 11.5067 62.5907 11.6 63.0107 11.6ZM68.7424 13V5.524H70.4924V10.452L74.6224 5.524H76.2184V13H74.4684V8.072L70.3524 13H68.7424ZM78.5725 13V5.524H80.3225V8.562H84.0885V5.524H85.8385V13H84.0885V10.046H80.3225V13H78.5725ZM88.1838 13V5.524H93.9238V7.008H89.5278L89.9338 6.616V13H88.1838ZM4.508 28.098C3.74267 28.098 3.06133 27.9347 2.464 27.608C1.86667 27.272 1.39533 26.8147 1.05 26.236C0.704667 25.6573 0.532 24.9993 0.532 24.262C0.532 23.5153 0.704667 22.8573 1.05 22.288C1.39533 21.7093 1.86667 21.2567 2.464 20.93C3.06133 20.6033 3.74267 20.44 4.508 20.44C5.28267 20.44 5.96867 20.6033 6.566 20.93C7.17267 21.2567 7.644 21.7047 7.98 22.274C8.32533 22.8433 8.498 23.506 8.498 24.262C8.498 24.9993 8.32533 25.6573 7.98 26.236C7.644 26.8147 7.17267 27.272 6.566 27.608C5.96867 27.9347 5.28267 28.098 4.508 28.098ZM4.508 26.6C4.93733 26.6 5.32 26.5067 5.656 26.32C5.992 26.1333 6.25333 25.8627 6.44 25.508C6.636 25.1533 6.734 24.738 6.734 24.262C6.734 23.7767 6.636 23.3613 6.44 23.016C6.25333 22.6613 5.992 22.3907 5.656 22.204C5.32 22.0173 4.942 21.924 4.522 21.924C4.09267 21.924 3.71 22.0173 3.374 22.204C3.04733 22.3907 2.786 22.6613 2.59 23.016C2.394 23.3613 2.296 23.7767 2.296 24.262C2.296 24.738 2.394 25.1533 2.59 25.508C2.786 25.8627 3.04733 26.1333 3.374 26.32C3.71 26.5067 4.088 26.6 4.508 26.6ZM13.7968 28.14C13.1808 28.14 12.6301 28.0467 12.1448 27.86C11.6594 27.6733 11.2394 27.3887 10.8848 27.006C10.5394 26.614 10.2734 26.1193 10.0868 25.522C9.90011 24.9247 9.80678 24.2153 9.80678 23.394C9.80678 22.7967 9.85811 22.2507 9.96078 21.756C10.0634 21.2613 10.2174 20.818 10.4228 20.426C10.6281 20.0247 10.8848 19.67 11.1928 19.362C11.5101 19.054 11.8788 18.7973 12.2988 18.592C12.7188 18.3867 13.1948 18.228 13.7268 18.116L17.1988 17.374L17.4508 18.942L14.3008 19.586C14.1234 19.6233 13.9088 19.6793 13.6568 19.754C13.4141 19.8193 13.1621 19.922 12.9008 20.062C12.6488 20.1927 12.4108 20.384 12.1868 20.636C11.9721 20.8787 11.7948 21.196 11.6548 21.588C11.5241 21.9707 11.4588 22.4513 11.4588 23.03C11.4588 23.2073 11.4634 23.3427 11.4728 23.436C11.4914 23.52 11.5054 23.6133 11.5148 23.716C11.5334 23.8093 11.5428 23.9493 11.5428 24.136L10.8848 23.45C11.0714 22.974 11.3281 22.568 11.6548 22.232C11.9908 21.8867 12.3781 21.6253 12.8168 21.448C13.2648 21.2613 13.7501 21.168 14.2728 21.168C14.9728 21.168 15.5934 21.3127 16.1348 21.602C16.6761 21.8913 17.1008 22.2973 17.4088 22.82C17.7168 23.3427 17.8708 23.9353 17.8708 24.598C17.8708 25.2887 17.7028 25.9 17.3668 26.432C17.0308 26.964 16.5548 27.384 15.9388 27.692C15.3321 27.9907 14.6181 28.14 13.7968 28.14ZM13.9368 26.726C14.3568 26.726 14.7254 26.6373 15.0428 26.46C15.3694 26.2733 15.6214 26.0213 15.7988 25.704C15.9854 25.3867 16.0788 25.032 16.0788 24.64C16.0788 24.248 15.9854 23.9073 15.7988 23.618C15.6214 23.3193 15.3694 23.0813 15.0428 22.904C14.7254 22.7267 14.3474 22.638 13.9088 22.638C13.4888 22.638 13.1108 22.722 12.7748 22.89C12.4481 23.058 12.1914 23.2913 12.0048 23.59C11.8274 23.8793 11.7388 24.2153 11.7388 24.598C11.7388 24.99 11.8321 25.3493 12.0188 25.676C12.2054 26.0027 12.4621 26.2593 12.7888 26.446C13.1248 26.6327 13.5074 26.726 13.9368 26.726ZM19.5647 28V20.524H21.3987L24.4087 25.83H23.6807L26.8447 20.524H28.4827L28.4967 28H26.9147V22.4L27.1947 22.582L24.3947 27.216H23.6387L20.8247 22.456L21.1607 22.372V28H19.5647ZM34.33 28.098C33.4993 28.098 32.7713 27.9347 32.146 27.608C31.53 27.272 31.0493 26.8147 30.704 26.236C30.368 25.6573 30.2 24.9993 30.2 24.262C30.2 23.5153 30.3633 22.8573 30.69 22.288C31.026 21.7093 31.4833 21.2567 32.062 20.93C32.65 20.6033 33.3173 20.44 34.064 20.44C34.792 20.44 35.4406 20.5987 36.01 20.916C36.5793 21.2333 37.0273 21.6813 37.354 22.26C37.6806 22.8387 37.844 23.52 37.844 24.304C37.844 24.3787 37.8393 24.4627 37.83 24.556C37.83 24.6493 37.8253 24.738 37.816 24.822H31.586V23.66H36.892L36.206 24.024C36.2153 23.5947 36.1266 23.2167 35.94 22.89C35.7533 22.5633 35.4966 22.3067 35.17 22.12C34.8526 21.9333 34.484 21.84 34.064 21.84C33.6346 21.84 33.2566 21.9333 32.93 22.12C32.6126 22.3067 32.3606 22.568 32.174 22.904C31.9966 23.2307 31.908 23.618 31.908 24.066V24.346C31.908 24.794 32.0106 25.1907 32.216 25.536C32.4213 25.8813 32.7106 26.1473 33.084 26.334C33.4573 26.5207 33.8866 26.614 34.372 26.614C34.792 26.614 35.17 26.5487 35.506 26.418C35.842 26.2873 36.1406 26.082 36.402 25.802L37.34 26.88C37.004 27.272 36.5793 27.5753 36.066 27.79C35.562 27.9953 34.9833 28.098 34.33 28.098ZM39.758 28V20.524H41.508V23.562H45.274V20.524H47.024V28H45.274V25.046H41.508V28H39.758ZM49.3694 28V20.524H51.1194V23.562H54.8854V20.524H56.6354V28H54.8854V25.046H51.1194V28H49.3694ZM58.9807 28V20.524H60.7307V25.452L64.8607 20.524H66.4567V28H64.7067V23.072L60.5907 28H58.9807ZM74.1728 28L71.4708 24.416L72.8988 23.534L76.2308 28H74.1728ZM68.8108 28V20.524H70.5608V28H68.8108ZM70.0428 25.004V23.548H72.5768V25.004H70.0428ZM73.0668 24.472L71.4288 24.276L74.1728 20.524H76.0488L73.0668 24.472ZM80.551 28.098C79.7856 28.098 79.1043 27.9347 78.507 27.608C77.9096 27.272 77.4383 26.8147 77.093 26.236C76.7476 25.6573 76.575 24.9993 76.575 24.262C76.575 23.5153 76.7476 22.8573 77.093 22.288C77.4383 21.7093 77.9096 21.2567 78.507 20.93C79.1043 20.6033 79.7856 20.44 80.551 20.44C81.3256 20.44 82.0116 20.6033 82.609 20.93C83.2156 21.2567 83.687 21.7047 84.023 22.274C84.3683 22.8433 84.541 23.506 84.541 24.262C84.541 24.9993 84.3683 25.6573 84.023 26.236C83.687 26.8147 83.2156 27.272 82.609 27.608C82.0116 27.9347 81.3256 28.098 80.551 28.098ZM80.551 26.6C80.9803 26.6 81.363 26.5067 81.699 26.32C82.035 26.1333 82.2963 25.8627 82.483 25.508C82.679 25.1533 82.777 24.738 82.777 24.262C82.777 23.7767 82.679 23.3613 82.483 23.016C82.2963 22.6613 82.035 22.3907 81.699 22.204C81.363 22.0173 80.985 21.924 80.565 21.924C80.1356 21.924 79.753 22.0173 79.417 22.204C79.0903 22.3907 78.829 22.6613 78.633 23.016C78.437 23.3613 78.339 23.7767 78.339 24.262C78.339 24.738 78.437 25.1533 78.633 25.508C78.829 25.8627 79.0903 26.1333 79.417 26.32C79.753 26.5067 80.131 26.6 80.551 26.6ZM86.2698 28V20.524H89.9238C90.8291 20.524 91.5384 20.692 92.0518 21.028C92.5744 21.364 92.8358 21.84 92.8358 22.456C92.8358 23.0627 92.5931 23.5387 92.1078 23.884C91.6224 24.22 90.9784 24.388 90.1758 24.388L90.3858 23.954C91.2911 23.954 91.9631 24.122 92.4018 24.458C92.8498 24.7847 93.0738 25.2653 93.0738 25.9C93.0738 26.5627 92.8264 27.0807 92.3318 27.454C91.8371 27.818 91.0858 28 90.0778 28H86.2698ZM87.9358 26.726H89.9378C90.4138 26.726 90.7731 26.6513 91.0158 26.502C91.2584 26.3433 91.3798 26.1053 91.3798 25.788C91.3798 25.452 91.2678 25.2047 91.0438 25.046C90.8198 24.8873 90.4698 24.808 89.9938 24.808H87.9358V26.726ZM87.9358 23.646H89.7698C90.2178 23.646 90.5538 23.5667 90.7778 23.408C91.0111 23.24 91.1278 23.0067 91.1278 22.708C91.1278 22.4 91.0111 22.1713 90.7778 22.022C90.5538 21.8727 90.2178 21.798 89.7698 21.798H87.9358V23.646Z" fill="white"/>
<path d="M97.98 26V23.564L105.764 16.172C106.417 15.556 106.903 15.0147 107.22 14.548C107.537 14.0813 107.743 13.652 107.836 13.26C107.948 12.8493 108.004 12.4667 108.004 12.112C108.004 11.216 107.696 10.5253 107.08 10.04C106.464 9.536 105.559 9.284 104.364 9.284C103.412 9.284 102.544 9.452 101.76 9.788C100.995 10.124 100.332 10.6373 99.772 11.328L97.224 9.368C97.9893 8.34133 99.016 7.548 100.304 6.988C101.611 6.40933 103.067 6.12 104.672 6.12C106.091 6.12 107.323 6.35333 108.368 6.82C109.432 7.268 110.244 7.912 110.804 8.752C111.383 9.592 111.672 10.5907 111.672 11.748C111.672 12.3827 111.588 13.0173 111.42 13.652C111.252 14.268 110.935 14.9213 110.468 15.612C110.001 16.3027 109.32 17.0773 108.424 17.936L101.732 24.292L100.976 22.92H112.428V26H97.98ZM113.839 21.548V19.028L123.499 6.4H127.391L117.871 19.028L116.051 18.468H131.591V21.548H113.839ZM124.591 26V21.548L124.703 18.468V14.52H128.119V26H124.591Z" fill="#878787"/>
</svg>
