<svg width="125" height="22" viewBox="0 0 125 22" fill="none" xmlns="http://www.w3.org/2000/svg">
<path d="M1.50391 18V3.76172H7.02148C8.42122 3.77474 9.47266 4.1263 10.1758 4.81641C10.8854 5.51302 11.2402 6.43424 11.2402 7.58008C11.2533 8.16602 11.1133 8.72591 10.8203 9.25977C10.6706 9.51367 10.4557 9.75456 10.1758 9.98242C9.89583 10.2233 9.55078 10.4414 9.14062 10.6367V10.6758C9.91536 10.8776 10.5013 11.2845 10.8984 11.8965C11.2695 12.528 11.4551 13.2148 11.4551 13.957C11.4421 15.1875 11.0579 16.1608 10.3027 16.877C9.55404 17.6257 8.61979 18 7.5 18H1.50391ZM6.98242 11.6816H3.66211V15.959H6.98242C7.7832 15.946 8.36914 15.7279 8.74023 15.3047C9.11133 14.888 9.29688 14.3932 9.29688 13.8203C9.29688 13.2344 9.11133 12.7331 8.74023 12.3164C8.36914 11.9062 7.7832 11.6947 6.98242 11.6816ZM6.77734 5.68555H3.66211V9.75781H6.77734C7.5651 9.75781 8.14453 9.55273 8.51562 9.14258C8.89323 8.76497 9.08203 8.28971 9.08203 7.7168C9.08203 7.14388 8.89323 6.65885 8.51562 6.26172C8.14453 5.89062 7.5651 5.69857 6.77734 5.68555ZM13.7109 18V3.76172H22.8027V5.80273H15.8691V9.86523H21.7871V11.7793H15.8691V15.959H22.8027V18H13.7109ZM25.0195 14.543C26.1523 15.474 27.5 15.946 29.0625 15.959C30.9115 15.9329 31.849 15.2721 31.875 13.9766C31.888 12.9154 31.2695 12.2773 30.0195 12.0625C29.4466 11.9844 28.8184 11.8965 28.1348 11.7988C26.9108 11.597 25.9798 11.1445 25.3418 10.4414C24.6842 9.71875 24.3555 8.83984 24.3555 7.80469C24.3555 6.5612 24.7689 5.55859 25.5957 4.79688C26.3965 4.04167 27.5326 3.65755 29.0039 3.64453C30.7747 3.68359 32.3145 4.17513 33.623 5.11914L32.4219 6.89648C31.3542 6.19336 30.179 5.82878 28.8965 5.80273C28.2324 5.80273 27.679 5.96875 27.2363 6.30078C26.7741 6.64583 26.5365 7.16016 26.5234 7.84375C26.5234 8.25391 26.6829 8.625 27.002 8.95703C27.321 9.29557 27.832 9.52995 28.5352 9.66016C28.9258 9.72526 29.4596 9.80013 30.1367 9.88477C31.4714 10.0671 32.4577 10.5456 33.0957 11.3203C33.7272 12.082 34.043 12.9674 34.043 13.9766C33.9714 16.6979 32.3047 18.0781 29.043 18.1172C26.9336 18.1172 25.1204 17.4661 23.6035 16.1641L25.0195 14.543ZM38.7402 18V5.68555H34.8438V3.76172H44.8047V5.68555H40.9082V18H38.7402Z" fill="white"/>
<path d="M59.8184 14.0156H62.1035C61.791 15.3372 61.1953 16.3529 60.3164 17.0625C59.4115 17.7656 58.3405 18.1172 57.1035 18.1172C55.9837 18.0911 55.0495 17.8177 54.3008 17.2969C53.5391 16.7956 52.9857 16.2161 52.6406 15.5586C52.5365 15.3438 52.4421 15.1387 52.3574 14.9434C52.2793 14.7415 52.2142 14.4876 52.1621 14.1816C52.0645 13.6087 52.0156 12.5085 52.0156 10.8809C52.0156 9.22721 52.0645 8.12044 52.1621 7.56055C52.2663 7.00065 52.4258 6.54818 52.6406 6.20312C52.9857 5.54557 53.5391 4.95964 54.3008 4.44531C55.0495 3.92448 55.9837 3.65755 57.1035 3.64453C58.4772 3.65755 59.597 4.06445 60.4629 4.86523C61.3288 5.67253 61.8757 6.67188 62.1035 7.86328H59.8184C59.6426 7.29036 59.3236 6.80208 58.8613 6.39844C58.3796 6.01432 57.7936 5.81576 57.1035 5.80273C56.5957 5.81576 56.1595 5.91667 55.7949 6.10547C55.4238 6.30078 55.1243 6.54492 54.8965 6.83789C54.6165 7.14388 54.431 7.53776 54.3398 8.01953C54.2357 8.52734 54.1836 9.48112 54.1836 10.8809C54.1836 12.2806 54.2357 13.2279 54.3398 13.7227C54.431 14.2174 54.6165 14.6178 54.8965 14.9238C55.1243 15.2168 55.4238 15.4544 55.7949 15.6367C56.1595 15.8516 56.5957 15.959 57.1035 15.959C58.3145 15.959 59.2194 15.3112 59.8184 14.0156ZM71.4297 18V11.7793H65.7949V18H63.6367V3.76172H65.7949V9.86523H71.4297V3.76172H73.5879V18H71.4297ZM79.125 12.9023H83.2852L81.2246 6.68164H81.1855L79.125 12.9023ZM85.0039 18L83.9004 14.8164H78.5L77.4062 18H75.1211L80.2969 3.76172H82.1035L87.2793 18H85.0039ZM88.8125 18V3.76172H90.8438L97.2891 13.8789H97.3281V3.76172H99.4863V18H97.4453L91.0098 7.88281H90.9707V18H88.8125ZM107.123 12.1992V10.1582H112.182V13.0586C112.156 14.4844 111.667 15.679 110.717 16.6426C109.76 17.5996 108.555 18.0911 107.104 18.1172C105.984 18.0911 105.049 17.8177 104.301 17.2969C103.539 16.7956 102.986 16.2161 102.641 15.5586C102.536 15.3438 102.442 15.1387 102.357 14.9434C102.279 14.7415 102.214 14.4876 102.162 14.1816C102.064 13.6087 102.016 12.5085 102.016 10.8809C102.016 9.22721 102.064 8.12044 102.162 7.56055C102.266 7.00065 102.426 6.54818 102.641 6.20312C102.986 5.54557 103.539 4.95964 104.301 4.44531C105.049 3.92448 105.984 3.65755 107.104 3.64453C108.477 3.65755 109.597 4.06445 110.463 4.86523C111.329 5.67253 111.876 6.67188 112.104 7.86328H109.818C109.643 7.29036 109.324 6.80208 108.861 6.39844C108.38 6.01432 107.794 5.81576 107.104 5.80273C106.596 5.81576 106.16 5.91667 105.795 6.10547C105.424 6.30078 105.124 6.54492 104.896 6.83789C104.617 7.14388 104.431 7.53776 104.34 8.01953C104.236 8.52734 104.184 9.48112 104.184 10.8809C104.184 12.2806 104.236 13.2279 104.34 13.7227C104.431 14.2174 104.617 14.6178 104.896 14.9238C105.124 15.2168 105.424 15.4544 105.795 15.6367C106.16 15.8516 106.596 15.959 107.104 15.959C107.943 15.959 108.637 15.6725 109.184 15.0996C109.73 14.5527 110.01 13.8333 110.023 12.9414V12.1992H107.123ZM114.711 18V3.76172H123.803V5.80273H116.869V9.86523H122.787V11.7793H116.869V15.959H123.803V18H114.711Z" fill="#878787"/>
</svg>
