<svg width="148" height="22" viewBox="0 0 148 22" fill="none" xmlns="http://www.w3.org/2000/svg">
<path d="M51.4491 8.07339H46.9042C47.0359 7.737 47.418 6.94312 47.8922 6.45872C48.485 5.85321 49.0778 5.65138 49.6707 5.65138C50.2635 5.65138 50.8563 6.05505 51.2515 6.66055C51.5677 7.14495 51.515 7.80428 51.4491 8.07339Z" fill="white"/>
<path d="M55.5988 8.6789V10.4954H46.9042C46.8383 10.8991 46.7461 11.7872 46.9042 12.1101C47.1018 12.5138 47.8922 12.7156 48.8802 12.7156C49.6707 12.7156 50.3952 12.3119 50.6587 12.1101H55.2036C54.6108 12.6483 53.3066 13.8055 52.8323 14.1284C52.2395 14.5321 51.6467 15.3394 51.4491 16.1468C51.291 16.7927 51.3832 17.4924 51.4491 17.7615C51.6467 17.6942 52.121 17.5193 52.4371 17.3578C52.8323 17.156 54.2156 15.7431 55.2036 14.9358C55.994 14.2899 57.3772 12.5138 57.9701 11.7064L55.5988 8.6789Z" fill="white"/>
<path d="M63.8982 1.61468H68.4431C67.2575 2.22018 64.6096 3.67339 63.503 4.6422C62.3964 5.61101 61.0659 7.737 60.5389 8.6789L55.5988 0.201835H64.8862L63.8982 1.61468Z" fill="white"/>
<path d="M39 0H54.2156L53.0299 1.81651C52.6347 2.42202 53.0299 4.0367 52.6347 3.63303C52.2395 3.22936 50.4774 3.02752 49.2754 3.02752C48.8802 3.02752 48.0898 2.96024 47.2994 3.22936C46.1138 3.63303 44.9281 4.44037 43.9401 5.44954C42.9521 6.45872 42.3593 7.87156 42.1617 9.88991C41.9641 11.9083 42.9521 12.7156 43.3473 13.3211C43.7425 13.9266 45.1257 14.9358 46.509 15.3394C47.6156 15.6624 48.9461 15.474 49.4731 15.3394L48.8802 22H39V0Z" fill="white"/>
<path d="M54.018 20.3853L60.3413 14.3303C61.4611 15.4067 63.7796 17.6807 64.0958 18.1651C64.491 18.7706 66.6647 19.9817 67.6527 20.3853C68.6407 20.789 69.4311 20.3853 70.4192 20.3853C71.2096 20.3853 71.8024 19.3089 72 18.7706V22H57.7725V20.789L54.018 20.3853Z" fill="white"/>
<path d="M70.4192 4.44037V8.6789L72 7.87156V16.9541C71.6707 16.9541 70.7353 16.9138 69.6287 16.7523C68.2455 16.5505 67.6527 15.5413 66.4671 14.9358C65.5186 14.4514 63.7006 12.3119 62.9102 11.3028C63.7006 10.4281 65.5186 8.47706 66.4671 7.66972C67.4156 6.86239 69.497 5.18043 70.4192 4.44037Z" fill="white"/>
<path d="M1.316 17V7.2H5.908C7.084 7.2 7.98 7.43333 8.596 7.9C9.212 8.35733 9.52 8.97333 9.52 9.748C9.52 10.2707 9.39867 10.7187 9.156 11.092C8.91333 11.456 8.58667 11.7407 8.176 11.946C7.77467 12.142 7.336 12.24 6.86 12.24L7.112 11.736C7.66267 11.736 8.15733 11.8387 8.596 12.044C9.03467 12.24 9.38 12.5293 9.632 12.912C9.89333 13.2947 10.024 13.7707 10.024 14.34C10.024 15.18 9.702 15.8333 9.058 16.3C8.414 16.7667 7.45733 17 6.188 17H1.316ZM3.136 15.572H6.076C6.75733 15.572 7.28 15.46 7.644 15.236C8.008 15.012 8.19 14.6527 8.19 14.158C8.19 13.6727 8.008 13.318 7.644 13.094C7.28 12.8607 6.75733 12.744 6.076 12.744H2.996V11.33H5.712C6.34667 11.33 6.832 11.218 7.168 10.994C7.51333 10.77 7.686 10.434 7.686 9.986C7.686 9.52867 7.51333 9.188 7.168 8.964C6.832 8.74 6.34667 8.628 5.712 8.628H3.136V15.572ZM15.3124 17.098C14.4817 17.098 13.7537 16.9347 13.1284 16.608C12.5124 16.272 12.0317 15.8147 11.6864 15.236C11.3504 14.6573 11.1824 13.9993 11.1824 13.262C11.1824 12.5153 11.3457 11.8573 11.6724 11.288C12.0084 10.7093 12.4657 10.2567 13.0444 9.93C13.6324 9.60333 14.2997 9.44 15.0464 9.44C15.7744 9.44 16.4231 9.59867 16.9924 9.916C17.5617 10.2333 18.0097 10.6813 18.3364 11.26C18.6631 11.8387 18.8264 12.52 18.8264 13.304C18.8264 13.3787 18.8217 13.4627 18.8124 13.556C18.8124 13.6493 18.8077 13.738 18.7984 13.822H12.5684V12.66H17.8744L17.1884 13.024C17.1977 12.5947 17.1091 12.2167 16.9224 11.89C16.7357 11.5633 16.4791 11.3067 16.1524 11.12C15.8351 10.9333 15.4664 10.84 15.0464 10.84C14.6171 10.84 14.2391 10.9333 13.9124 11.12C13.5951 11.3067 13.3431 11.568 13.1564 11.904C12.9791 12.2307 12.8904 12.618 12.8904 13.066V13.346C12.8904 13.794 12.9931 14.1907 13.1984 14.536C13.4037 14.8813 13.6931 15.1473 14.0664 15.334C14.4397 15.5207 14.8691 15.614 15.3544 15.614C15.7744 15.614 16.1524 15.5487 16.4884 15.418C16.8244 15.2873 17.1231 15.082 17.3844 14.802L18.3224 15.88C17.9864 16.272 17.5617 16.5753 17.0484 16.79C16.5444 16.9953 15.9657 17.098 15.3124 17.098ZM22.8174 17.098C22.192 17.098 21.59 17.0187 21.0114 16.86C20.442 16.692 19.9894 16.4913 19.6534 16.258L20.3254 14.928C20.6614 15.1427 21.0627 15.32 21.5294 15.46C21.996 15.6 22.4627 15.67 22.9294 15.67C23.48 15.67 23.8767 15.5953 24.1194 15.446C24.3714 15.2967 24.4974 15.096 24.4974 14.844C24.4974 14.6387 24.4134 14.4847 24.2454 14.382C24.0774 14.27 23.858 14.186 23.5874 14.13C23.3167 14.074 23.0134 14.0227 22.6774 13.976C22.3507 13.9293 22.0194 13.8687 21.6834 13.794C21.3567 13.71 21.058 13.5933 20.7874 13.444C20.5167 13.2853 20.2974 13.0753 20.1294 12.814C19.9614 12.5527 19.8774 12.2073 19.8774 11.778C19.8774 11.302 20.0127 10.8913 20.2834 10.546C20.554 10.1913 20.932 9.92067 21.4174 9.734C21.912 9.538 22.4954 9.44 23.1674 9.44C23.6714 9.44 24.18 9.496 24.6934 9.608C25.2067 9.72 25.6314 9.87867 25.9674 10.084L25.2954 11.414C24.9407 11.1993 24.5814 11.0547 24.2174 10.98C23.8627 10.896 23.508 10.854 23.1534 10.854C22.6214 10.854 22.2247 10.9333 21.9634 11.092C21.7114 11.2507 21.5854 11.4513 21.5854 11.694C21.5854 11.918 21.6694 12.086 21.8374 12.198C22.0054 12.31 22.2247 12.3987 22.4954 12.464C22.766 12.5293 23.0647 12.5853 23.3914 12.632C23.7274 12.6693 24.0587 12.73 24.3854 12.814C24.712 12.898 25.0107 13.0147 25.2814 13.164C25.5614 13.304 25.7854 13.5047 25.9534 13.766C26.1214 14.0273 26.2054 14.368 26.2054 14.788C26.2054 15.2547 26.0654 15.6607 25.7854 16.006C25.5147 16.3513 25.1274 16.622 24.6234 16.818C24.1194 17.0047 23.5174 17.098 22.8174 17.098ZM30.5265 17.098C29.7051 17.098 29.0705 16.888 28.6225 16.468C28.1745 16.0387 27.9505 15.4087 27.9505 14.578V7.872H29.7005V14.536C29.7005 14.8907 29.7891 15.166 29.9665 15.362C30.1531 15.558 30.4098 15.656 30.7365 15.656C31.1285 15.656 31.4551 15.5533 31.7165 15.348L32.2065 16.594C32.0011 16.762 31.7491 16.888 31.4505 16.972C31.1518 17.056 30.8438 17.098 30.5265 17.098ZM26.7185 10.98V9.58H31.7025V10.98H26.7185Z" fill="#878787"/>
<path d="M78.578 17.098C77.794 17.098 77.094 16.9347 76.478 16.608C75.8713 16.272 75.3953 15.8147 75.05 15.236C74.7047 14.6573 74.532 13.9993 74.532 13.262C74.532 12.5153 74.7047 11.8573 75.05 11.288C75.3953 10.7093 75.8713 10.2567 76.478 9.93C77.094 9.60333 77.794 9.44 78.578 9.44C79.306 9.44 79.9453 9.58933 80.496 9.888C81.056 10.1773 81.4807 10.6067 81.77 11.176L80.426 11.96C80.202 11.6053 79.9267 11.344 79.6 11.176C79.2827 11.008 78.9373 10.924 78.564 10.924C78.1347 10.924 77.7473 11.0173 77.402 11.204C77.0567 11.3907 76.786 11.6613 76.59 12.016C76.394 12.3613 76.296 12.7767 76.296 13.262C76.296 13.7473 76.394 14.1673 76.59 14.522C76.786 14.8673 77.0567 15.1333 77.402 15.32C77.7473 15.5067 78.1347 15.6 78.564 15.6C78.9373 15.6 79.2827 15.516 79.6 15.348C79.9267 15.18 80.202 14.9187 80.426 14.564L81.77 15.348C81.4807 15.908 81.056 16.342 80.496 16.65C79.9453 16.9487 79.306 17.098 78.578 17.098ZM87.4564 9.44C88.0537 9.44 88.5857 9.55667 89.0524 9.79C89.5284 10.0233 89.9017 10.3827 90.1724 10.868C90.4431 11.344 90.5784 11.96 90.5784 12.716V17H88.8284V12.94C88.8284 12.2773 88.6697 11.7827 88.3524 11.456C88.0444 11.1293 87.6104 10.966 87.0504 10.966C86.6397 10.966 86.2757 11.05 85.9584 11.218C85.6411 11.386 85.3937 11.638 85.2164 11.974C85.0484 12.3007 84.9644 12.716 84.9644 13.22V17H83.2144V6.612H84.9644V11.54L84.5864 10.924C84.8477 10.448 85.2257 10.084 85.7204 9.832C86.2244 9.57067 86.8031 9.44 87.4564 9.44ZM97.4044 17V15.488L97.3064 15.166V12.52C97.3064 12.0067 97.1524 11.61 96.8444 11.33C96.5364 11.0407 96.0697 10.896 95.4444 10.896C95.0244 10.896 94.6091 10.9613 94.1984 11.092C93.7971 11.2227 93.4564 11.4047 93.1764 11.638L92.4904 10.364C92.8917 10.056 93.3677 9.82733 93.9184 9.678C94.4784 9.51933 95.0571 9.44 95.6544 9.44C96.7371 9.44 97.5724 9.70133 98.1604 10.224C98.7577 10.7373 99.0564 11.5353 99.0564 12.618V17H97.4044ZM95.0524 17.098C94.4924 17.098 94.0024 17.0047 93.5824 16.818C93.1624 16.622 92.8357 16.356 92.6024 16.02C92.3784 15.6747 92.2664 15.2873 92.2664 14.858C92.2664 14.438 92.3644 14.06 92.5604 13.724C92.7657 13.388 93.0971 13.122 93.5544 12.926C94.0117 12.73 94.6184 12.632 95.3744 12.632H97.5444V13.794H95.5004C94.9031 13.794 94.5017 13.892 94.2964 14.088C94.0911 14.2747 93.9884 14.508 93.9884 14.788C93.9884 15.1053 94.1144 15.3573 94.3664 15.544C94.6184 15.7307 94.9684 15.824 95.4164 15.824C95.8457 15.824 96.2284 15.726 96.5644 15.53C96.9097 15.334 97.1571 15.0447 97.3064 14.662L97.6004 15.712C97.4324 16.1507 97.1291 16.4913 96.6904 16.734C96.2611 16.9767 95.7151 17.098 95.0524 17.098ZM105.544 9.44C106.142 9.44 106.674 9.55667 107.14 9.79C107.616 10.0233 107.99 10.3827 108.26 10.868C108.531 11.344 108.666 11.96 108.666 12.716V17H106.916V12.94C106.916 12.2773 106.758 11.7827 106.44 11.456C106.132 11.1293 105.698 10.966 105.138 10.966C104.728 10.966 104.364 11.05 104.046 11.218C103.729 11.386 103.482 11.638 103.304 11.974C103.136 12.3007 103.052 12.716 103.052 13.22V17H101.302V9.524H102.968V11.54L102.674 10.924C102.936 10.448 103.314 10.084 103.808 9.832C104.312 9.57067 104.891 9.44 105.544 9.44ZM114.288 19.814C113.597 19.814 112.921 19.7207 112.258 19.534C111.605 19.3567 111.068 19.0953 110.648 18.75L111.432 17.434C111.759 17.7047 112.169 17.9193 112.664 18.078C113.168 18.246 113.677 18.33 114.19 18.33C115.011 18.33 115.613 18.1387 115.996 17.756C116.379 17.3827 116.57 16.818 116.57 16.062V14.732L116.71 13.038L116.654 11.344V9.524H118.32V15.866C118.32 17.2193 117.975 18.2133 117.284 18.848C116.593 19.492 115.595 19.814 114.288 19.814ZM114.064 16.664C113.355 16.664 112.711 16.5147 112.132 16.216C111.563 15.908 111.11 15.4833 110.774 14.942C110.447 14.4007 110.284 13.766 110.284 13.038C110.284 12.3193 110.447 11.6893 110.774 11.148C111.11 10.6067 111.563 10.1867 112.132 9.888C112.711 9.58933 113.355 9.44 114.064 9.44C114.699 9.44 115.268 9.566 115.772 9.818C116.276 10.07 116.677 10.462 116.976 10.994C117.284 11.526 117.438 12.2073 117.438 13.038C117.438 13.8687 117.284 14.5547 116.976 15.096C116.677 15.628 116.276 16.0247 115.772 16.286C115.268 16.538 114.699 16.664 114.064 16.664ZM114.33 15.18C114.769 15.18 115.161 15.0913 115.506 14.914C115.851 14.7273 116.117 14.4753 116.304 14.158C116.5 13.8313 116.598 13.458 116.598 13.038C116.598 12.618 116.5 12.2493 116.304 11.932C116.117 11.6053 115.851 11.358 115.506 11.19C115.161 11.0127 114.769 10.924 114.33 10.924C113.891 10.924 113.495 11.0127 113.14 11.19C112.795 11.358 112.524 11.6053 112.328 11.932C112.141 12.2493 112.048 12.618 112.048 13.038C112.048 13.458 112.141 13.8313 112.328 14.158C112.524 14.4753 112.795 14.7273 113.14 14.914C113.495 15.0913 113.891 15.18 114.33 15.18ZM124.135 17.098C123.304 17.098 122.576 16.9347 121.951 16.608C121.335 16.272 120.854 15.8147 120.509 15.236C120.173 14.6573 120.005 13.9993 120.005 13.262C120.005 12.5153 120.168 11.8573 120.495 11.288C120.831 10.7093 121.288 10.2567 121.867 9.93C122.455 9.60333 123.122 9.44 123.869 9.44C124.597 9.44 125.245 9.59867 125.815 9.916C126.384 10.2333 126.832 10.6813 127.159 11.26C127.485 11.8387 127.649 12.52 127.649 13.304C127.649 13.3787 127.644 13.4627 127.635 13.556C127.635 13.6493 127.63 13.738 127.621 13.822H121.391V12.66H126.697L126.011 13.024C126.02 12.5947 125.931 12.2167 125.745 11.89C125.558 11.5633 125.301 11.3067 124.975 11.12C124.657 10.9333 124.289 10.84 123.869 10.84C123.439 10.84 123.061 10.9333 122.735 11.12C122.417 11.3067 122.165 11.568 121.979 11.904C121.801 12.2307 121.713 12.618 121.713 13.066V13.346C121.713 13.794 121.815 14.1907 122.021 14.536C122.226 14.8813 122.515 15.1473 122.889 15.334C123.262 15.5207 123.691 15.614 124.177 15.614C124.597 15.614 124.975 15.5487 125.311 15.418C125.647 15.2873 125.945 15.082 126.207 14.802L127.145 15.88C126.809 16.272 126.384 16.5753 125.871 16.79C125.367 16.9953 124.788 17.098 124.135 17.098ZM129.33 17V9.524H130.996V11.582L130.8 10.98C131.024 10.476 131.374 10.0933 131.85 9.832C132.335 9.57067 132.937 9.44 133.656 9.44V11.106C133.581 11.0873 133.511 11.078 133.446 11.078C133.38 11.0687 133.315 11.064 133.25 11.064C132.587 11.064 132.06 11.26 131.668 11.652C131.276 12.0347 131.08 12.6087 131.08 13.374V17H129.33ZM137.519 17.098C136.893 17.098 136.291 17.0187 135.713 16.86C135.143 16.692 134.691 16.4913 134.355 16.258L135.027 14.928C135.363 15.1427 135.764 15.32 136.231 15.46C136.697 15.6 137.164 15.67 137.631 15.67C138.181 15.67 138.578 15.5953 138.821 15.446C139.073 15.2967 139.199 15.096 139.199 14.844C139.199 14.6387 139.115 14.4847 138.947 14.382C138.779 14.27 138.559 14.186 138.289 14.13C138.018 14.074 137.715 14.0227 137.379 13.976C137.052 13.9293 136.721 13.8687 136.385 13.794C136.058 13.71 135.759 13.5933 135.489 13.444C135.218 13.2853 134.999 13.0753 134.831 12.814C134.663 12.5527 134.579 12.2073 134.579 11.778C134.579 11.302 134.714 10.8913 134.985 10.546C135.255 10.1913 135.633 9.92067 136.119 9.734C136.613 9.538 137.197 9.44 137.869 9.44C138.373 9.44 138.881 9.496 139.395 9.608C139.908 9.72 140.333 9.87867 140.669 10.084L139.997 11.414C139.642 11.1993 139.283 11.0547 138.919 10.98C138.564 10.896 138.209 10.854 137.855 10.854C137.323 10.854 136.926 10.9333 136.665 11.092C136.413 11.2507 136.287 11.4513 136.287 11.694C136.287 11.918 136.371 12.086 136.539 12.198C136.707 12.31 136.926 12.3987 137.197 12.464C137.467 12.5293 137.766 12.5853 138.093 12.632C138.429 12.6693 138.76 12.73 139.087 12.814C139.413 12.898 139.712 13.0147 139.983 13.164C140.263 13.304 140.487 13.5047 140.655 13.766C140.823 14.0273 140.907 14.368 140.907 14.788C140.907 15.2547 140.767 15.6607 140.487 16.006C140.216 16.3513 139.829 16.622 139.325 16.818C138.821 17.0047 138.219 17.098 137.519 17.098Z" fill="#878787"/>
</svg>
